# xmcd CD database file
#
# Track frame offsets:
#	150
#	23968
#	51536
#	64266
#	86455
#	129167
#	142510
#	163931
#	184739
#	198005
#	222153
#	242999
#	277105
#
# Disc length: 3993 seconds
#
# Revision: 0
# Processed by: cddbd v1.5.2PL0 Copyright (c) Steve Scherf et al.
# Submitted via: CDex 1.51
#
DISCID=bb0f970d
DTITLE=Eumir Deodato Trio - Ao Vivo no Rio
DYEAR=2007
DGENRE=Jazz
TTITLE0=Whistle Bump
TTITLE1=Rhapsody in Blue
TTITLE2=Berimbau
TTITLE3=Sabiá
TTITLE4=Whirlwinds
TTITLE5=Samba de Uma Nota Só
TTITLE6=Dindi
TTITLE7=Skyscrapers
TTITLE8=Wave
TTITLE9=Super Strut
TTITLE10=Carly and Carole
TTITLE11=Also Sprach Zarathustra
TTITLE12=San Juan Sunset
EXTD=YEAR: 2007
EXTT0=
EXTT1=
EXTT2=
EXTT3=
EXTT4=
EXTT5=
EXTT6=
EXTT7=
EXTT8=
EXTT9=
EXTT10=
EXTT11=
EXTT12=
PLAYORDER=
